<svg width="651" height="488" viewBox="0 0 651 488" xmlns="http://www.w3.org/2000/svg"><g fill="none" fill-rule="evenodd"><path d="M386.52 211.287c.324-69.016-14.694-116.916-31.672-147.084-7.901-14.041-18.095-25.983-29.848-35.62C347.643 10.014 376.074 0 405.062 0c20.91 0 42.11 5.211 61.63 16.184 30.046 16.891 50.483 44.26 59.308 74.944-22.207 1.226-44.307 8.726-63.534 22.917-23.61 17.43-51.423 47.867-75.946 97.242" fill="#B3D4D5"/><path d="M324.953 487.953C189.073 350.835 100.193 342.712 47.84 303.981c-52.35-38.717-63.443-112.618-24.787-165.06C46.158 107.58 81.818 91 117.942 91c2.165 0 4.332.059 6.498.18-8.969 31.238-5.925 65.917 11.242 96.493 33.386 59.444 113.835 105.64 185.184 289.567 1.038 2.74 2.095 5.498 3.166 8.267l.921 2.446" fill="#CCC1D3"/><path d="M324.064 485.452c-1.037-2.83-2.06-5.65-3.064-8.452 1.022 2.783 2.045 5.606 3.064 8.452" fill="#A5AEC1"/><path d="M263.481 211.205c-24.517-49.328-52.316-79.74-75.916-97.16C168.33 99.847 146.218 92.347 124 91.125c8.828-30.683 29.267-58.05 59.309-74.94C202.832 5.21 224.032 0 244.939 0 273.929 0 302.358 10.015 325 28.582c-11.754 9.638-21.948 21.58-29.85 35.621-16.974 30.157-31.984 78.027-31.669 147.002" fill="#B7A7C2"/><path d="M325.513 488c-6.468-127.652-31.534-216.232-61.508-276.517-.315-68.922 14.689-116.755 31.655-146.889C303.56 50.564 313.75 38.63 325.498 29c11.749 9.63 21.939 21.563 29.838 35.594 16.97 30.145 31.983 78.008 31.659 146.97-29.954 60.285-54.999 148.821-61.474 276.416l-.008.02" fill="#8C95B0"/><path d="M324.994 487.979l-.026-.026c-.31-.825-.614-1.628-.923-2.447.315.816.636 1.638.955 2.457l-.015.037M320.87 477.235c-71.535-184.01-152.195-230.227-185.668-289.697-17.213-30.59-20.264-65.285-11.272-96.538 22.225 1.222 44.345 8.724 63.586 22.927 23.608 17.425 51.416 47.847 75.94 97.19.31 67.474 15.279 155.133 57.414 266.118" fill="#9E88AE"/><path d="M324.99 488c-.317-.82-.635-1.642-.948-2.458-1.046-2.787-2.095-5.55-3.145-8.276C279.14 366.219 264.306 278.51 264 211c29.726 60.384 54.586 149.11 61 276.971l-.01.029" fill="#877FA5"/><path d="M326 488c.309-.824.624-1.663.934-2.48 1.076-2.785 2.144-5.574 3.188-8.328 71.338-183.896 151.79-230.08 185.158-289.519 17.167-30.576 20.214-65.253 11.25-96.492 2.177-.121 4.356-.181 6.533-.181 36.124 0 71.781 16.581 94.882 47.92 38.661 52.443 27.565 126.344-24.786 165.061C550.809 342.717 461.915 350.834 326 488" fill="#D1E5E4"/><path d="M325 488l.004-.086.932-2.396c-.31.819-.627 1.657-.936 2.482M329.133 477.188c42.11-110.925 57.078-198.535 57.396-265.99 24.534-49.39 52.36-79.837 75.982-97.273C481.746 99.729 503.856 92.227 526.073 91c8.99 31.253 5.934 65.946-11.28 96.536-33.457 59.467-114.129 105.67-185.66 289.652" fill="#A6CECF"/><path d="M326 485a960.91 960.91 0 0 1 3-8c-.982 2.646-1.987 5.325-3 8" fill="#AAB3C5"/><path d="M326 488c6.425-127.865 31.276-216.588 61-277-.315 67.524-15.155 155.224-56.906 266.263a993.27 993.27 0 0 0-3.17 8.339c-.308.802-.613 1.594-.924 2.398" fill="#8FA8B9"/></g></svg>