<svg width="1421" height="210" viewBox="0 0 1421 210" xmlns="http://www.w3.org/2000/svg" xmlns:xlink="http://www.w3.org/1999/xlink"><defs><path id="a" d="M0 .807h1420.62V209.94H0z"/></defs><g fill="none" fill-rule="evenodd"><mask id="b" fill="#fff"><use xlink:href="#a"/></mask><path d="M0 2.911v92.262h15.507V47.795h32.494v-5.922H15.507V8.833h44.962V2.911H0zm133.327 92.691c4.364-1.17 8.428-2.818 12.195-4.949a50.287 50.287 0 0 0 10.247-7.637 47.132 47.132 0 0 0 7.832-9.896 49.849 49.849 0 0 0 5.026-11.688c1.194-4.156 1.792-8.467 1.792-12.936 0-6.595-1.313-12.791-3.935-18.584-2.624-5.792-6.209-10.843-10.754-15.157-4.546-4.311-9.909-7.714-16.091-10.208-6.183-2.492-12.857-3.74-20.026-3.74-4.78 0-9.351.572-13.715 1.715-4.364 1.143-8.429 2.74-12.195 4.793a49.471 49.471 0 0 0-10.286 7.44 46.517 46.517 0 0 0-7.87 9.663 47.525 47.525 0 0 0-5.026 11.377c-1.196 4.053-1.792 8.286-1.792 12.701 0 4.469.596 8.78 1.792 12.936a49.724 49.724 0 0 0 5.026 11.688 46.42 46.42 0 0 0 7.87 9.896 51.178 51.178 0 0 0 10.286 7.637c3.766 2.131 7.831 3.779 12.195 4.949 4.364 1.168 8.935 1.752 13.715 1.752 4.779 0 9.351-.584 13.714-1.752zm-27.935-6.156c-4.079-2.207-7.494-5.286-10.247-9.235-2.754-3.947-4.819-8.623-6.195-14.025-1.377-5.403-2.065-11.299-2.065-17.69 0-6.337.688-12.142 2.065-17.416 1.376-5.271 3.441-9.818 6.195-13.636 2.753-3.819 6.168-6.791 10.247-8.922 4.077-2.129 8.817-3.195 14.221-3.195 5.246 0 9.896 1.066 13.948 3.195 4.052 2.131 7.467 5.103 10.247 8.922 2.778 3.818 4.882 8.365 6.312 13.636 1.428 5.274 2.143 11.079 2.143 17.416 0 6.391-.715 12.287-2.143 17.69-1.43 5.402-3.534 10.078-6.312 14.025-2.78 3.949-6.195 7.028-10.247 9.235-4.052 2.209-8.702 3.311-13.948 3.311-5.404 0-10.144-1.102-14.221-3.311zm82.56-27c0 4.779.857 9.285 2.571 13.518a31.738 31.738 0 0 0 7.52 11.105c3.298 3.17 7.403 5.676 12.312 7.519 4.909 1.844 10.558 2.766 16.948 2.766 7.169 0 13.298-.922 18.39-2.766 5.091-1.843 9.26-4.337 12.507-7.48 3.246-3.143 5.636-6.805 7.169-10.988 1.532-4.18 2.299-8.635 2.299-13.364V2.911h-6.858v59.845c0 3.949-.662 7.664-1.987 11.143-1.324 3.481-3.221 6.52-5.688 9.117-2.468 2.599-5.468 4.65-9 6.156-3.534 1.508-7.508 2.26-11.923 2.26-4.363 0-8.312-.752-11.844-2.26-3.533-1.506-6.559-3.557-9.078-6.156-2.52-2.597-4.455-5.636-5.805-9.117-1.352-3.479-2.026-7.194-2.026-11.143V2.911h-15.507v59.535zm101.3 32.727h6.936V22.315h.545l65.456 75.039h3.584V2.911h-6.779v67.404h-.623L297.902 2.911h-8.65v92.262zm90.782-92.262v5.922h33.429v86.34h15.507V8.833h33.429V2.911h-82.365zM500.192.807l-44.495 94.366h7.793l14.571-30.78h39.507l14.105 30.78h15.74L504.01.807h-3.818zm-2.182 21.117l16.753 36.469h-33.974l17.221-36.469zm61.403 73.249h15.507V2.911h-15.507v92.262zm38.651 0h6.935V22.315h.545L671 97.354h3.584V2.911h-6.779v67.404h-.623L606.713 2.911h-8.649v92.262zm200.107.429c4.364-1.17 8.428-2.818 12.196-4.949a50.28 50.28 0 0 0 10.246-7.637 47.132 47.132 0 0 0 7.832-9.896 49.846 49.846 0 0 0 5.025-11.688c1.196-4.156 1.793-8.467 1.793-12.936 0-6.595-1.312-12.791-3.935-18.584-2.623-5.792-6.207-10.843-10.754-15.157-4.545-4.311-9.908-7.714-16.09-10.208-6.184-2.492-12.858-3.74-20.027-3.74-4.78 0-9.35.572-13.715 1.715-4.364 1.143-8.43 2.74-12.196 4.793a49.518 49.518 0 0 0-10.285 7.44 46.522 46.522 0 0 0-7.871 9.663 47.561 47.561 0 0 0-5.025 11.377c-1.196 4.053-1.791 8.286-1.791 12.701 0 4.469.595 8.78 1.791 12.936a49.763 49.763 0 0 0 5.025 11.688 46.424 46.424 0 0 0 7.871 9.896 51.228 51.228 0 0 0 10.285 7.637c3.766 2.131 7.832 3.779 12.196 4.949 4.365 1.168 8.935 1.752 13.715 1.752 4.779 0 9.351-.584 13.714-1.752zm-27.935-6.156c-4.078-2.207-7.494-5.286-10.246-9.235-2.754-3.947-4.821-8.623-6.196-14.025-1.377-5.403-2.066-11.299-2.066-17.69 0-6.337.689-12.142 2.066-17.416 1.375-5.271 3.442-9.818 6.196-13.636 2.752-3.819 6.168-6.791 10.246-8.922 4.076-2.129 8.816-3.195 14.221-3.195 5.246 0 9.896 1.066 13.949 3.195 4.051 2.131 7.467 5.103 10.246 8.922 2.779 3.818 4.883 8.365 6.312 13.636 1.428 5.274 2.143 11.079 2.143 17.416 0 6.391-.715 12.287-2.143 17.69-1.429 5.402-3.533 10.078-6.312 14.025-2.779 3.949-6.195 7.028-10.246 9.235-4.053 2.209-8.703 3.311-13.949 3.311-5.405 0-10.145-1.102-14.221-3.311zm84.273-86.535v92.262h15.508V47.795h32.494v-5.922h-32.494V8.833h44.961V2.911h-60.469zm89.692 0l36.857 53.845v38.417h15.508V55.276l35.764-52.365h-8.41l-31.876 46.754-31.947-46.754h-15.896zm155.459 92.691c4.36-1.17 8.43-2.818 12.19-4.949a50.306 50.306 0 0 0 10.25-7.637 47.383 47.383 0 0 0 7.83-9.896c2.16-3.635 3.83-7.532 5.03-11.688 1.19-4.156 1.79-8.467 1.79-12.936 0-6.595-1.31-12.791-3.94-18.584-2.62-5.792-6.21-10.843-10.75-15.157-4.55-4.311-9.91-7.714-16.09-10.208-6.18-2.492-12.86-3.74-20.03-3.74-4.78 0-9.35.572-13.71 1.715-4.37 1.143-8.43 2.74-12.2 4.793a49.618 49.618 0 0 0-10.28 7.44c-3.09 2.91-5.72 6.132-7.87 9.663-2.16 3.533-3.83 7.325-5.03 11.377-1.19 4.053-1.79 8.286-1.79 12.701 0 4.469.6 8.78 1.79 12.936 1.2 4.156 2.87 8.053 5.03 11.688a46.295 46.295 0 0 0 7.87 9.896 51.338 51.338 0 0 0 10.28 7.637c3.77 2.131 7.83 3.779 12.2 4.949 4.36 1.168 8.93 1.752 13.71 1.752 4.78 0 9.35-.584 13.72-1.752zm-27.94-6.156c-4.08-2.207-7.49-5.286-10.25-9.235-2.75-3.947-4.81-8.623-6.19-14.025-1.38-5.403-2.07-11.299-2.07-17.69 0-6.337.69-12.142 2.07-17.416 1.38-5.271 3.44-9.818 6.19-13.636 2.76-3.819 6.17-6.791 10.25-8.922 4.08-2.129 8.82-3.195 14.22-3.195 5.25 0 9.9 1.066 13.95 3.195 4.05 2.131 7.47 5.103 10.25 8.922 2.78 3.818 4.88 8.365 6.31 13.636 1.43 5.274 2.14 11.079 2.14 17.416 0 6.391-.71 12.287-2.14 17.69-1.43 5.402-3.53 10.078-6.31 14.025-2.78 3.949-6.2 7.028-10.25 9.235-4.05 2.209-8.7 3.311-13.95 3.311-5.4 0-10.14-1.102-14.22-3.311zm82.56-27c0 4.779.86 9.285 2.57 13.518a31.806 31.806 0 0 0 7.52 11.105c3.3 3.17 7.41 5.676 12.32 7.519 4.9 1.844 10.55 2.766 16.94 2.766 7.17 0 13.3-.922 18.39-2.766 5.09-1.843 9.26-4.337 12.51-7.48 3.25-3.143 5.64-6.805 7.17-10.988 1.53-4.18 2.3-8.635 2.3-13.364V2.911h-6.86v59.845c0 3.949-.66 7.664-1.99 11.143-1.32 3.481-3.22 6.52-5.69 9.117-2.46 2.599-5.46 4.65-9 6.156-3.53 1.508-7.5 2.26-11.92 2.26-4.36 0-8.31-.752-11.84-2.26-3.53-1.506-6.56-3.557-9.08-6.156-2.52-2.597-4.45-5.636-5.81-9.117-1.35-3.479-2.02-7.194-2.02-11.143V2.911h-15.51v59.535zm92.34-59.535v5.922h33.43v86.34h15.51V8.833h33.43V2.911h-82.37zm158.5 48.001v44.261h15.5V2.911h-15.5V44.99h-46.37V2.911h-15.5v92.262h15.5V50.912h46.37z" fill="#009CA5" mask="url(#b)"/><path d="M.004 209.215h8.045V189.92h21.846v19.295h8.045V163.43h-8.045v19.033H8.049V163.43H.004v45.785zm49.709 0h34.273v-7.195H57.758v-12.297h22.957v-7.193H57.758v-11.905h25.901v-7.195H49.713v45.785zm39.897 0h8.242l4.709-11.055h21.65l4.643 11.055h8.503l-20.145-46.112h-7.456L89.61 209.215zm15.894-18.184l7.849-18.314 7.914 18.314h-15.763zm39.702 18.184h32.114v-7.326h-24.069V163.43h-8.045v45.785zm45.195 0h8.111v-38.328h14.52v-7.457h-37.151v7.457h14.52v38.328zm31.133 0h8.045V189.92h21.846v19.295h8.045V163.43h-8.045v19.033h-21.846V163.43h-8.045v45.785zm69.788 0h8.045V163.43h-8.045v45.785zm20.275 0h7.914v-32.703l14.324 21.453h.262l14.455-21.584v32.834h8.045V163.43h-8.568l-13.932 21.65-13.932-21.65h-8.568v45.785zm56.773 0h8.045v-14.717h9.091c10.073 0 18.314-5.363 18.314-15.633v-.128c0-9.225-6.737-15.307-17.398-15.307H368.37v45.785zm8.045-21.976v-16.483h9.353c6.017 0 9.876 2.813 9.876 8.176v.131c0 4.773-3.793 8.176-9.876 8.176h-9.353zm35.646 21.976h8.045v-15.959h10.073l11.25 15.959h9.484l-12.362-17.334c6.41-1.83 10.923-6.344 10.923-13.865v-.131c0-3.99-1.374-7.391-3.794-9.877-2.944-2.877-7.456-4.578-13.212-4.578h-20.407v45.785zm8.045-23.09v-15.369h11.708c5.952 0 9.484 2.682 9.484 7.586v.131c0 4.644-3.663 7.652-9.419 7.652h-11.773zM481.194 210c14.064 0 24.006-10.793 24.006-23.677v-.131c0-12.885-9.811-23.546-23.874-23.546-14.062 0-24.004 10.792-24.004 23.677v.13c0 12.885 9.811 23.547 23.872 23.547zm.132-7.39c-9.092 0-15.566-7.393-15.566-16.287v-.131c0-8.895 6.344-16.157 15.434-16.157 9.093 0 15.568 7.391 15.568 16.288v.13c0 8.895-6.344 16.157-15.436 16.157zm45.915 6.931h7.064l19.033-46.111h-8.699l-13.735 35.189-13.801-35.189h-8.895l19.033 46.111zm33.946-.326h34.273v-7.195h-26.229v-12.297h22.958v-7.193h-22.958v-11.905h25.902v-7.195h-33.946v45.785zm43.822 0h7.914v-32.703l14.325 21.453h.261l14.455-21.584v32.834h8.045V163.43h-8.569l-13.931 21.65-13.931-21.65h-8.569v45.785zm56.773 0h34.273v-7.195h-26.228v-12.297h22.958v-7.193h-22.958v-11.905h25.901v-7.195h-33.946v45.785zm43.822 0h7.913v-32.572l25.248 32.572h6.736V163.43h-7.914v31.656L713.06 163.43h-7.456v45.785zm62.921 0h8.109v-38.328h14.522v-7.457h-37.151v7.457h14.52v38.328zm50.754 0h7.914v-32.703l14.324 21.453h.262l14.455-21.584v32.834h8.045V163.43h-8.569l-13.931 21.65-13.932-21.65h-8.568v45.785zm56.773 0h34.274v-7.195h-26.229v-12.297h22.957v-7.193h-22.957v-11.905h25.901v-7.195h-33.946v45.785zm43.823 0h17.07c14.39 0 24.33-10.008 24.33-22.892v-.131c0-12.885-9.94-22.762-24.33-22.762h-17.07v45.785zm8.044-7.326v-31.133h9.026c9.615 0 15.894 6.606 15.894 15.567v.13c0 8.961-6.279 15.436-15.894 15.436h-9.026zm43.561 7.326h8.045V163.43h-8.045v45.785zm41.53.785c8.57 0 13.8-3.14 18.58-8.111l-5.17-5.233c-3.92 3.665-7.52 5.954-13.15 5.954-8.76 0-15.104-7.327-15.104-16.287v-.131c0-8.961 6.344-16.157 15.104-16.157 5.24 0 9.16 2.291 12.82 5.692l5.17-5.951c-4.38-4.188-9.49-7.13-17.92-7.13-13.868 0-23.614 10.661-23.614 23.677v.13c0 13.147 9.943 23.547 23.284 23.547zm23.09-.785h8.24l4.71-11.055h21.65l4.64 11.055h8.51l-20.15-46.112h-7.45l-20.15 46.112zm15.89-18.184l7.85-18.314 7.92 18.314h-15.77zm39.7 18.184h32.12v-7.326h-24.07V163.43h-8.05v45.785zm81.37.785c8.57 0 13.8-3.14 18.57-8.111l-5.16-5.233c-3.93 3.665-7.53 5.954-13.15 5.954-8.76 0-15.11-7.327-15.11-16.287v-.131c0-8.961 6.35-16.157 15.11-16.157 5.23 0 9.16 2.291 12.82 5.692l5.17-5.951c-4.38-4.188-9.49-7.13-17.92-7.13-13.87 0-23.62 10.661-23.62 23.677v.13c0 13.147 9.95 23.547 23.29 23.547zm27.01-.785h34.28v-7.195h-26.23v-12.297h22.95v-7.193h-22.95v-11.905h25.9v-7.195h-33.95v45.785zm43.82 0h7.92v-32.572l25.24 32.572h6.74V163.43h-7.91v31.656l-24.53-31.656h-7.46v45.785zm62.92 0h8.12v-38.328h14.51v-7.457h-37.15v7.457h14.52v38.328zm31.14 0h34.27v-7.195h-26.23v-12.297h22.96v-7.193h-22.96v-11.905h25.9v-7.195h-33.94v45.785zm43.82 0h8.04v-15.959h10.08l11.25 15.959h9.48l-12.36-17.334c6.41-1.83 10.92-6.344 10.92-13.865v-.131c0-3.99-1.37-7.391-3.79-9.877-2.95-2.877-7.46-4.578-13.21-4.578h-20.41v45.785zm8.04-23.09v-15.369h11.71c5.95 0 9.49 2.682 9.49 7.586v.131c0 4.644-3.67 7.652-9.42 7.652h-11.78z" fill="#636463" mask="url(#b)"/></g></svg>